<?xml version="1.0" encoding="UTF-8"?>
<!DOCTYPE svg PUBLIC "-//W3C//DTD SVG 1.1//EN" "http://www.w3.org/Graphics/SVG/1.1/DTD/svg11.dtd">
<svg xmlns="http://www.w3.org/2000/svg" version="1.1" width="1024px" height="1024px" style="shape-rendering:geometricPrecision; text-rendering:geometricPrecision; image-rendering:optimizeQuality; fill-rule:evenodd; clip-rule:evenodd" xmlns:xlink="http://www.w3.org/1999/xlink">
<g><path style="opacity:1" fill="#fefefe" d="M -0.5,-0.5 C 340.833,-0.5 682.167,-0.5 1023.5,-0.5C 1023.5,340.833 1023.5,682.167 1023.5,1023.5C 682.167,1023.5 340.833,1023.5 -0.5,1023.5C -0.5,682.167 -0.5,340.833 -0.5,-0.5 Z"/></g>
<g><path style="opacity:1" fill="#31495b" d="M 655.5,178.5 C 655.5,179.5 655.5,180.5 655.5,181.5C 657.199,181.34 658.866,181.506 660.5,182C 663.453,184.488 666.786,186.321 670.5,187.5C 664.774,189.552 662.441,193.552 663.5,199.5C 658.489,199.334 653.489,199.501 648.5,200C 647.565,202.381 647.232,204.881 647.5,207.5C 644.833,207.5 642.167,207.5 639.5,207.5C 639.5,204.833 639.5,202.167 639.5,199.5C 646.107,201.251 648.607,198.918 647,192.5C 639.58,191.353 632.08,191.187 624.5,192C 623.565,194.381 623.232,196.881 623.5,199.5C 620.482,199.665 617.482,199.498 614.5,199C 615.635,194.252 615.802,189.419 615,184.5C 612.667,183.167 610.333,183.167 608,184.5C 607.198,189.419 607.365,194.252 608.5,199C 605.518,199.498 602.518,199.665 599.5,199.5C 599.5,203.5 599.5,207.5 599.5,211.5C 600.833,211.5 602.167,211.5 603.5,211.5C 603.5,215.5 603.5,219.5 603.5,223.5C 607.812,223.615 608.146,223.949 604.5,224.5C 600.82,223.172 597.153,223.172 593.5,224.5C 586.05,223.638 578.717,222.138 571.5,220C 538.878,214.652 506.211,214.152 473.5,218.5C 468.586,218.362 463.919,219.028 459.5,220.5C 446.796,222.427 434.462,225.427 422.5,229.5C 417.835,230.057 413.502,231.39 409.5,233.5C 334.828,260.568 277.328,308.235 237,376.5C 223.894,401.483 214.561,427.817 209,455.5C 205.574,471.832 203.074,488.166 201.5,504.5C 201.785,502.712 201.452,501.045 200.5,499.5C 199.501,512.817 199.167,526.15 199.5,539.5C 191.5,539.5 183.5,539.5 175.5,539.5C 175.5,540.833 175.5,542.167 175.5,543.5C 172.833,543.5 170.167,543.5 167.5,543.5C 169.167,536.5 166.5,533.833 159.5,535.5C 159.5,532.833 159.5,530.167 159.5,527.5C 162.167,527.5 164.833,527.5 167.5,527.5C 167.5,522.167 167.5,516.833 167.5,511.5C 164.833,511.5 162.167,511.5 159.5,511.5C 159.5,508.833 159.5,506.167 159.5,503.5C 158.167,503.5 156.833,503.5 155.5,503.5C 155.5,502.167 155.5,500.833 155.5,499.5C 156.833,499.5 158.167,499.5 159.5,499.5C 159.5,495.5 159.5,491.5 159.5,487.5C 156.833,487.5 154.167,487.5 151.5,487.5C 151.662,483.287 150.995,479.287 149.5,475.5C 149.833,474.167 150.167,472.833 150.5,471.5C 151.318,474.107 151.818,476.774 152,479.5C 152.497,477.19 152.663,474.857 152.5,472.5C 154.833,472.5 157.167,472.5 159.5,472.5C 159.5,468.5 159.5,464.5 159.5,460.5C 157.143,460.663 154.81,460.497 152.5,460C 151.167,459 151.167,458 152.5,457C 154.81,456.503 157.143,456.337 159.5,456.5C 159.5,453.5 159.5,450.5 159.5,447.5C 162.167,447.5 164.833,447.5 167.5,447.5C 167.5,444.833 167.5,442.167 167.5,439.5C 174.5,441.167 177.167,438.5 175.5,431.5C 182.5,433.167 185.167,430.5 183.5,423.5C 190.5,425.167 193.167,422.5 191.5,415.5C 193.857,415.663 196.19,415.497 198.5,415C 199.337,413.989 199.67,412.822 199.5,411.5C 198.167,411.5 196.833,411.5 195.5,411.5C 195.5,410.167 195.5,408.833 195.5,407.5C 194.167,407.5 192.833,407.5 191.5,407.5C 191.5,394.167 191.5,380.833 191.5,367.5C 194.167,367.5 196.833,367.5 199.5,367.5C 199.5,366.167 199.5,364.833 199.5,363.5C 200.833,363.5 202.167,363.5 203.5,363.5C 203.5,362.167 203.5,360.833 203.5,359.5C 204.833,359.5 206.167,359.5 207.5,359.5C 207.5,358.167 207.5,356.833 207.5,355.5C 208.833,355.5 210.167,355.5 211.5,355.5C 211.5,356.833 211.5,358.167 211.5,359.5C 214.167,359.5 216.833,359.5 219.5,359.5C 219.5,360.833 219.5,362.167 219.5,363.5C 220.833,363.5 222.167,363.5 223.5,363.5C 223.5,356.833 223.5,350.167 223.5,343.5C 228.511,343.666 233.511,343.499 238.5,343C 239.471,337.928 239.805,332.762 239.5,327.5C 242.119,327.768 244.619,327.435 247,326.5C 247.499,321.511 247.666,316.511 247.5,311.5C 254.5,313.167 257.167,310.5 255.5,303.5C 262.5,305.167 265.167,302.5 263.5,295.5C 268.511,295.666 273.511,295.499 278.5,295C 279.435,292.619 279.768,290.119 279.5,287.5C 282.167,287.5 284.833,287.5 287.5,287.5C 287.051,289.977 287.717,291.977 289.5,293.5C 290.976,291.429 292.976,290.429 295.5,290.5C 295.5,288.167 295.5,285.833 295.5,283.5C 299.167,283.5 302.833,283.5 306.5,283.5C 306.275,281.284 307.108,279.617 309,278.5C 310.9,273.087 309.067,270.753 303.5,271.5C 303.5,268.833 303.5,266.167 303.5,263.5C 308.511,263.666 313.511,263.499 318.5,263C 319.435,260.619 319.768,258.119 319.5,255.5C 322.167,255.5 324.833,255.5 327.5,255.5C 327.5,254.167 327.5,252.833 327.5,251.5C 328.833,251.5 330.167,251.5 331.5,251.5C 331.5,252.833 331.5,254.167 331.5,255.5C 332.833,255.5 334.167,255.5 335.5,255.5C 335.5,254.167 335.5,252.833 335.5,251.5C 336.833,251.5 338.167,251.5 339.5,251.5C 339.5,250.167 339.5,248.833 339.5,247.5C 343.5,247.5 347.5,247.5 351.5,247.5C 351.5,248.5 351.5,249.5 351.5,250.5C 354.407,250.425 357.073,249.591 359.5,248C 358.009,245.978 358.342,244.312 360.5,243C 366.145,244.294 371.478,243.46 376.5,240.5C 373.628,239.217 370.795,239.217 368,240.5C 367.501,234.843 367.334,229.176 367.5,223.5C 370.167,223.5 372.833,223.5 375.5,223.5C 375.5,222.167 375.5,220.833 375.5,219.5C 378.167,219.5 380.833,219.5 383.5,219.5C 383.5,216.833 383.5,214.167 383.5,211.5C 379.5,211.5 375.5,211.5 371.5,211.5C 371.5,210.167 371.5,208.833 371.5,207.5C 370.167,207.5 368.833,207.5 367.5,207.5C 367.5,202.167 367.5,196.833 367.5,191.5C 372.511,191.666 377.511,191.499 382.5,191C 384.053,187.32 383.719,183.82 381.5,180.5C 385.426,179.594 388.759,178.261 391.5,176.5C 391.5,178.833 391.5,181.167 391.5,183.5C 393.857,183.663 396.19,183.497 398.5,183C 399.337,181.989 399.67,180.822 399.5,179.5C 398.167,179.5 396.833,179.5 395.5,179.5C 395.343,178.127 395.51,176.793 396,175.5C 396.333,175.833 396.667,176.167 397,176.5C 397.5,175.333 398.333,174.5 399.5,174C 398.167,173.333 398.167,172.667 399.5,172C 398.906,171.536 398.239,171.369 397.5,171.5C 462.299,149.259 528.299,145.426 595.5,160C 615.978,164.66 635.978,170.826 655.5,178.5 Z"/></g>
<g><path style="opacity:1" fill="#32485a" d="M 397.5,171.5 C 398.239,171.369 398.906,171.536 399.5,172C 398.167,172.667 398.167,173.333 399.5,174C 398.333,174.5 397.5,175.333 397,176.5C 396.667,176.167 396.333,175.833 396,175.5C 395.51,176.793 395.343,178.127 395.5,179.5C 396.833,179.5 398.167,179.5 399.5,179.5C 399.67,180.822 399.337,181.989 398.5,183C 396.19,183.497 393.857,183.663 391.5,183.5C 391.5,181.167 391.5,178.833 391.5,176.5C 388.759,178.261 385.426,179.594 381.5,180.5C 383.719,183.82 384.053,187.32 382.5,191C 377.511,191.499 372.511,191.666 367.5,191.5C 367.5,196.833 367.5,202.167 367.5,207.5C 368.833,207.5 370.167,207.5 371.5,207.5C 371.5,208.833 371.5,210.167 371.5,211.5C 375.5,211.5 379.5,211.5 383.5,211.5C 383.5,214.167 383.5,216.833 383.5,219.5C 380.833,219.5 378.167,219.5 375.5,219.5C 375.5,220.833 375.5,222.167 375.5,223.5C 372.833,223.5 370.167,223.5 367.5,223.5C 367.334,229.176 367.501,234.843 368,240.5C 370.795,239.217 373.628,239.217 376.5,240.5C 371.478,243.46 366.145,244.294 360.5,243C 358.342,244.312 358.009,245.978 359.5,248C 357.073,249.591 354.407,250.425 351.5,250.5C 351.5,249.5 351.5,248.5 351.5,247.5C 347.5,247.5 343.5,247.5 339.5,247.5C 339.5,248.833 339.5,250.167 339.5,251.5C 338.167,251.5 336.833,251.5 335.5,251.5C 335.5,252.833 335.5,254.167 335.5,255.5C 334.167,255.5 332.833,255.5 331.5,255.5C 331.5,254.167 331.5,252.833 331.5,251.5C 330.167,251.5 328.833,251.5 327.5,251.5C 327.5,252.833 327.5,254.167 327.5,255.5C 324.833,255.5 322.167,255.5 319.5,255.5C 319.768,258.119 319.435,260.619 318.5,263C 313.511,263.499 308.511,263.666 303.5,263.5C 303.5,266.167 303.5,268.833 303.5,271.5C 309.067,270.753 310.9,273.087 309,278.5C 307.108,279.617 306.275,281.284 306.5,283.5C 302.833,283.5 299.167,283.5 295.5,283.5C 295.5,285.833 295.5,288.167 295.5,290.5C 292.976,290.429 290.976,291.429 289.5,293.5C 287.717,291.977 287.051,289.977 287.5,287.5C 284.833,287.5 282.167,287.5 279.5,287.5C 279.768,290.119 279.435,292.619 278.5,295C 273.511,295.499 268.511,295.666 263.5,295.5C 265.167,302.5 262.5,305.167 255.5,303.5C 257.167,310.5 254.5,313.167 247.5,311.5C 247.666,316.511 247.499,321.511 247,326.5C 244.619,327.435 242.119,327.768 239.5,327.5C 239.805,332.762 239.471,337.928 238.5,343C 233.511,343.499 228.511,343.666 223.5,343.5C 223.5,350.167 223.5,356.833 223.5,363.5C 222.167,363.5 220.833,363.5 219.5,363.5C 219.5,362.167 219.5,360.833 219.5,359.5C 216.833,359.5 214.167,359.5 211.5,359.5C 211.5,358.167 211.5,356.833 211.5,355.5C 210.167,355.5 208.833,355.5 207.5,355.5C 207.5,356.833 207.5,358.167 207.5,359.5C 206.167,359.5 204.833,359.5 203.5,359.5C 203.5,360.833 203.5,362.167 203.5,363.5C 202.167,363.5 200.833,363.5 199.5,363.5C 199.5,364.833 199.5,366.167 199.5,367.5C 196.833,367.5 194.167,367.5 191.5,367.5C 191.5,380.833 191.5,394.167 191.5,407.5C 192.833,407.5 194.167,407.5 195.5,407.5C 195.5,408.833 195.5,410.167 195.5,411.5C 196.833,411.5 198.167,411.5 199.5,411.5C 199.67,412.822 199.337,413.989 198.5,415C 196.19,415.497 193.857,415.663 191.5,415.5C 193.167,422.5 190.5,425.167 183.5,423.5C 185.167,430.5 182.5,433.167 175.5,431.5C 177.167,438.5 174.5,441.167 167.5,439.5C 167.5,442.167 167.5,444.833 167.5,447.5C 164.833,447.5 162.167,447.5 159.5,447.5C 159.5,450.5 159.5,453.5 159.5,456.5C 157.143,456.337 154.81,456.503 152.5,457C 151.167,458 151.167,459 152.5,460C 154.81,460.497 157.143,460.663 159.5,460.5C 159.5,464.5 159.5,468.5 159.5,472.5C 157.167,472.5 154.833,472.5 152.5,472.5C 152.663,474.857 152.497,477.19 152,479.5C 151.818,476.774 151.318,474.107 150.5,471.5C 150.167,472.833 149.833,474.167 149.5,475.5C 150.995,479.287 151.662,483.287 151.5,487.5C 154.167,487.5 156.833,487.5 159.5,487.5C 159.5,491.5 159.5,495.5 159.5,499.5C 158.167,499.5 156.833,499.5 155.5,499.5C 155.5,500.833 155.5,502.167 155.5,503.5C 156.833,503.5 158.167,503.5 159.5,503.5C 159.5,506.167 159.5,508.833 159.5,511.5C 162.167,511.5 164.833,511.5 167.5,511.5C 167.5,516.833 167.5,522.167 167.5,527.5C 164.833,527.5 162.167,527.5 159.5,527.5C 159.5,530.167 159.5,532.833 159.5,535.5C 166.5,533.833 169.167,536.5 167.5,543.5C 170.167,543.5 172.833,543.5 175.5,543.5C 175.5,542.167 175.5,540.833 175.5,539.5C 183.5,539.5 191.5,539.5 199.5,539.5C 199.167,526.15 199.501,512.817 200.5,499.5C 201.452,501.045 201.785,502.712 201.5,504.5C 199.333,553.84 207.833,601.173 227,646.5C 242.368,630.965 257.868,615.632 273.5,600.5C 267.277,608.229 260.444,615.563 253,622.5C 252.51,623.793 252.343,625.127 252.5,626.5C 256.071,626.408 257.238,628.074 256,631.5C 254.246,633.25 252.079,633.917 249.5,633.5C 249.5,635.5 249.5,637.5 249.5,639.5C 251.5,639.5 253.5,639.5 255.5,639.5C 255.5,644.833 255.5,650.167 255.5,655.5C 252.833,655.5 250.167,655.5 247.5,655.5C 247.5,660.833 247.5,666.167 247.5,671.5C 244.833,671.5 242.167,671.5 239.5,671.5C 239.768,674.119 239.435,676.619 238.5,679C 230.841,679.5 223.174,679.666 215.5,679.5C 217.167,686.5 214.5,689.167 207.5,687.5C 207.5,696.833 207.5,706.167 207.5,715.5C 204.833,715.167 202.167,714.833 199.5,714.5C 199.5,708.167 199.5,701.833 199.5,695.5C 196.833,695.5 194.167,695.5 191.5,695.5C 191.085,697.747 190.418,699.914 189.5,702C 189.921,704.185 190.421,706.351 191,708.5C 194.71,713.926 197.877,719.593 200.5,725.5C 184.035,701.664 170.868,675.998 161,648.5C 126.376,548.76 132.043,451.427 178,356.5C 211.474,292.025 259.64,241.525 322.5,205C 346.055,190.646 371.055,179.48 397.5,171.5 Z"/></g>
<g><path style="opacity:1" fill="#32485a" d="M 655.5,178.5 C 693.173,193.491 727.507,213.825 758.5,239.5C 744.662,255.503 730.329,271.003 715.5,286C 714.092,286.315 712.759,285.982 711.5,285C 694.548,270.183 675.882,257.849 655.5,248C 635.319,238.665 614.652,230.832 593.5,224.5C 597.153,223.172 600.82,223.172 604.5,224.5C 608.146,223.949 607.812,223.615 603.5,223.5C 603.5,219.5 603.5,215.5 603.5,211.5C 602.167,211.5 600.833,211.5 599.5,211.5C 599.5,207.5 599.5,203.5 599.5,199.5C 602.518,199.665 605.518,199.498 608.5,199C 607.365,194.252 607.198,189.419 608,184.5C 610.333,183.167 612.667,183.167 615,184.5C 615.802,189.419 615.635,194.252 614.5,199C 617.482,199.498 620.482,199.665 623.5,199.5C 623.232,196.881 623.565,194.381 624.5,192C 632.08,191.187 639.58,191.353 647,192.5C 648.607,198.918 646.107,201.251 639.5,199.5C 639.5,202.167 639.5,204.833 639.5,207.5C 642.167,207.5 644.833,207.5 647.5,207.5C 647.232,204.881 647.565,202.381 648.5,200C 653.489,199.501 658.489,199.334 663.5,199.5C 662.441,193.552 664.774,189.552 670.5,187.5C 666.786,186.321 663.453,184.488 660.5,182C 658.866,181.506 657.199,181.34 655.5,181.5C 655.5,180.5 655.5,179.5 655.5,178.5 Z"/></g>
<g><path style="opacity:1" fill="#c4ced6" d="M 473.5,218.5 C 469.081,219.972 464.414,220.638 459.5,220.5C 463.919,219.028 468.586,218.362 473.5,218.5 Z"/></g>
<g><path style="opacity:1" fill="#c7d4d9" d="M 422.5,229.5 C 418.699,232.075 414.365,233.408 409.5,233.5C 413.502,231.39 417.835,230.057 422.5,229.5 Z"/></g>
<g><path style="opacity:1" fill="#a2b0b7" d="M 781.5,347.5 C 781.638,352.414 780.972,357.081 779.5,361.5C 779.362,356.586 780.028,351.919 781.5,347.5 Z"/></g>
<g><path style="opacity:1" fill="#ccd4d9" d="M 775.5,395.5 C 775.21,404.389 774.21,413.056 772.5,421.5C 772.79,412.611 773.79,403.944 775.5,395.5 Z"/></g>
<g><path style="opacity:1" fill="#324859" d="M 880.5,608.5 C 879.42,605.273 879.753,602.106 881.5,599C 881.561,597.289 880.894,595.956 879.5,595C 881.211,593.867 881.711,592.367 881,590.5C 880.667,590.833 880.333,591.167 880,591.5C 879.833,590.333 879.667,589.167 879.5,588C 879.779,585.657 880.112,583.657 880.5,582C 878.869,580.164 878.202,580.664 878.5,583.5C 876.167,583.5 873.833,583.5 871.5,583.5C 871.666,588.511 871.499,593.511 871,598.5C 868.619,599.435 866.119,599.768 863.5,599.5C 863.666,604.511 863.499,609.511 863,614.5C 860.619,615.435 858.119,615.768 855.5,615.5C 857.167,622.5 854.5,625.167 847.5,623.5C 847.5,628.833 847.5,634.167 847.5,639.5C 850.119,639.232 852.619,639.565 855,640.5C 855.667,647.167 855.667,653.833 855,660.5C 851.623,663.013 847.79,664.013 843.5,663.5C 843.5,666.167 843.5,668.833 843.5,671.5C 845.857,671.337 848.19,671.503 850.5,672C 851.337,673.011 851.67,674.178 851.5,675.5C 852.675,675.281 853.675,675.614 854.5,676.5C 851.783,676.999 849.449,678.165 847.5,680C 849.036,681.599 849.536,683.433 849,685.5C 846.961,684.022 846.128,682.022 846.5,679.5C 844.167,679.5 841.833,679.5 839.5,679.5C 839.5,676.833 839.5,674.167 839.5,671.5C 836.833,671.5 834.167,671.5 831.5,671.5C 831.5,664.833 831.5,658.167 831.5,651.5C 830.167,651.5 828.833,651.5 827.5,651.5C 827.5,652.833 827.5,654.167 827.5,655.5C 826.167,655.5 824.833,655.5 823.5,655.5C 823.5,651.5 823.5,647.5 823.5,643.5C 820.833,643.5 818.167,643.5 815.5,643.5C 815.5,647.5 815.5,651.5 815.5,655.5C 813.071,655.116 810.737,654.449 808.5,653.5C 808.392,651.217 807.559,649.217 806,647.5C 801.922,651.474 799.755,655.974 799.5,661C 796.695,663.599 794.361,666.599 792.5,670C 793.572,671.284 794.905,671.617 796.5,671C 795.556,673.719 795.223,676.552 795.5,679.5C 794.167,679.5 792.833,679.5 791.5,679.5C 791.5,692.833 791.5,706.167 791.5,719.5C 788.833,719.5 786.167,719.5 783.5,719.5C 783.5,722.167 783.5,724.833 783.5,727.5C 780.833,727.5 778.167,727.5 775.5,727.5C 777.167,734.5 774.5,737.167 767.5,735.5C 767.5,738.167 767.5,740.833 767.5,743.5C 774.5,741.833 777.167,744.5 775.5,751.5C 772.833,751.5 770.167,751.5 767.5,751.5C 767.5,754.167 767.5,756.833 767.5,759.5C 764.833,759.5 762.167,759.5 759.5,759.5C 759.5,762.167 759.5,764.833 759.5,767.5C 762.167,767.5 764.833,767.5 767.5,767.5C 767.768,770.119 767.435,772.619 766.5,775C 761.511,775.499 756.511,775.666 751.5,775.5C 751.5,770.167 751.5,764.833 751.5,759.5C 746.167,759.5 740.833,759.5 735.5,759.5C 735.5,762.167 735.5,764.833 735.5,767.5C 732.833,767.5 730.167,767.5 727.5,767.5C 727.5,770.167 727.5,772.833 727.5,775.5C 724.833,775.5 722.167,775.5 719.5,775.5C 719.5,778.167 719.5,780.833 719.5,783.5C 717.5,783.5 715.5,783.5 713.5,783.5C 713.5,782.167 713.5,780.833 713.5,779.5C 712.5,779.5 711.5,779.5 710.5,779.5C 710.5,777.833 710.5,776.167 710.5,774.5C 709.167,774.5 707.833,774.5 706.5,774.5C 706.5,775.833 706.5,777.167 706.5,778.5C 704.139,778.674 701.806,779.007 699.5,779.5C 699.5,778.5 699.5,777.5 699.5,776.5C 703.047,776.271 703.047,775.271 699.5,773.5C 695.105,775.721 691.105,778.554 687.5,782C 687.146,783.626 687.146,785.459 687.5,787.5C 685.193,787.014 683.027,787.014 681,787.5C 680.583,786.244 679.75,785.577 678.5,785.5C 769.945,728.331 819.779,645.665 828,537.5C 828.738,521.482 828.571,505.482 827.5,489.5C 827.638,484.586 826.972,479.919 825.5,475.5C 822.69,453.929 817.524,432.929 810,412.5C 809.333,410.833 809.333,409.167 810,407.5C 825.318,393.348 840.152,378.682 854.5,363.5C 858.649,369.743 862.149,376.41 865,383.5C 879.838,422.05 888.504,462.05 891,503.5C 892.424,539.128 888.924,574.128 880.5,608.5 Z"/></g>
<g><path style="opacity:1" fill="#32485a" d="M 781.5,347.5 C 780.028,351.919 779.362,356.586 779.5,361.5C 777.904,372.797 776.57,384.131 775.5,395.5C 773.79,403.944 772.79,412.611 772.5,421.5C 768.345,448.739 764.678,476.073 761.5,503.5C 760.028,507.919 759.362,512.586 759.5,517.5C 758.084,529.244 756.251,540.911 754,552.5C 744.022,527.568 735.022,502.234 727,476.5C 725.973,473.246 724.473,470.246 722.5,467.5C 687.178,504.322 652.012,541.322 617,578.5C 613.663,620.174 591.163,640.341 549.5,639C 526.5,633.333 512.167,619 506.5,596C 487.991,583.246 469.658,570.246 451.5,557C 449.726,556.03 447.893,555.196 446,554.5C 434.044,560.289 421.544,561.956 408.5,559.5C 407.737,558.732 406.737,558.232 405.5,558C 407.235,557.349 408.902,557.515 410.5,558.5C 411.354,557.478 412.354,556.645 413.5,556C 411.341,553.501 408.841,552.667 406,553.5C 403.147,550.908 400.314,550.908 397.5,553.5C 392.85,552.24 388.35,550.574 384,548.5C 383.333,544.5 383.333,540.5 384,536.5C 386.381,535.565 388.881,535.232 391.5,535.5C 391.5,527.5 391.5,519.5 391.5,511.5C 388.833,511.5 386.167,511.5 383.5,511.5C 383.5,510.167 383.5,508.833 383.5,507.5C 378.456,507.173 373.456,507.506 368.5,508.5C 367.597,510.62 366.263,510.954 364.5,509.5C 363.305,511.297 361.638,512.297 359.5,512.5C 361.461,510.037 363.628,507.703 366,505.5C 367.149,486.359 375.649,471.525 391.5,461C 408.669,452.137 426.336,451.137 444.5,458C 461.643,466.785 472.143,480.618 476,499.5C 493.167,512 510.333,524.5 527.5,537C 529.365,538.301 531.365,538.635 533.5,538C 538.286,534.274 543.619,531.607 549.5,530C 558.517,529.616 567.517,529.616 576.5,530C 611.416,494.588 645.416,458.421 678.5,421.5C 646.823,417.582 615.156,413.749 583.5,410C 650.469,379.183 717.469,348.35 784.5,317.5C 784.833,318.167 785.167,318.833 785.5,319.5C 783.246,328.703 781.913,338.036 781.5,347.5 Z"/></g>
<g><path style="opacity:1" fill="#a9b5be" d="M 825.5,475.5 C 826.972,479.919 827.638,484.586 827.5,489.5C 826.028,485.081 825.362,480.414 825.5,475.5 Z"/></g>
<g><path style="opacity:1" fill="#30485b" d="M 408.5,559.5 C 405.174,558.655 401.84,558.155 398.5,558C 337.835,620.332 276.835,682.332 215.5,744C 214.004,744.507 212.837,744.007 212,742.5C 207.651,737.122 203.818,731.455 200.5,725.5C 197.877,719.593 194.71,713.926 191,708.5C 190.421,706.351 189.921,704.185 189.5,702C 190.418,699.914 191.085,697.747 191.5,695.5C 194.167,695.5 196.833,695.5 199.5,695.5C 199.5,701.833 199.5,708.167 199.5,714.5C 202.167,714.833 204.833,715.167 207.5,715.5C 207.5,706.167 207.5,696.833 207.5,687.5C 214.5,689.167 217.167,686.5 215.5,679.5C 223.174,679.666 230.841,679.5 238.5,679C 239.435,676.619 239.768,674.119 239.5,671.5C 242.167,671.5 244.833,671.5 247.5,671.5C 247.5,666.167 247.5,660.833 247.5,655.5C 250.167,655.5 252.833,655.5 255.5,655.5C 255.5,650.167 255.5,644.833 255.5,639.5C 253.5,639.5 251.5,639.5 249.5,639.5C 249.5,637.5 249.5,635.5 249.5,633.5C 252.079,633.917 254.246,633.25 256,631.5C 257.238,628.074 256.071,626.408 252.5,626.5C 252.343,625.127 252.51,623.793 253,622.5C 260.444,615.563 267.277,608.229 273.5,600.5C 273.987,599.527 274.487,598.527 275,597.5C 303.395,569.272 331.562,540.938 359.5,512.5C 361.638,512.297 363.305,511.297 364.5,509.5C 366.263,510.954 367.597,510.62 368.5,508.5C 373.456,507.506 378.456,507.173 383.5,507.5C 383.5,508.833 383.5,510.167 383.5,511.5C 386.167,511.5 388.833,511.5 391.5,511.5C 391.5,519.5 391.5,527.5 391.5,535.5C 388.881,535.232 386.381,535.565 384,536.5C 383.333,540.5 383.333,544.5 384,548.5C 388.35,550.574 392.85,552.24 397.5,553.5C 400.314,550.908 403.147,550.908 406,553.5C 408.841,552.667 411.341,553.501 413.5,556C 412.354,556.645 411.354,557.478 410.5,558.5C 408.902,557.515 407.235,557.349 405.5,558C 406.737,558.232 407.737,558.732 408.5,559.5 Z"/></g>
<g><path style="opacity:1" fill="#aab7c0" d="M 761.5,503.5 C 761.638,508.414 760.972,513.081 759.5,517.5C 759.362,512.586 760.028,507.919 761.5,503.5 Z"/></g>
<g><path style="opacity:1" fill="#30485a" d="M 880.5,608.5 C 866.496,669.851 838.329,723.517 796,769.5C 753.349,815.897 702.515,849.897 643.5,871.5C 640.848,871.41 638.515,872.076 636.5,873.5C 621.793,878.593 606.793,882.593 591.5,885.5C 585.963,886.087 580.63,887.087 575.5,888.5C 562.953,890.824 550.286,892.157 537.5,892.5C 524.673,891.669 511.673,891.169 498.5,891C 495.027,891.135 492.194,889.969 490,887.5C 488.604,888.394 487.104,889.061 485.5,889.5C 476.865,889.524 468.198,888.69 459.5,887C 456.456,886.641 456.122,885.974 458.5,885C 455.266,884.8 452.266,883.967 449.5,882.5C 448.353,882.818 447.519,883.484 447,884.5C 440.98,882.65 435.147,880.983 429.5,879.5C 432.454,878.853 435.454,878.686 438.5,879C 439.435,876.619 439.768,874.119 439.5,871.5C 442.119,871.768 444.619,871.435 447,870.5C 447.499,865.511 447.666,860.511 447.5,855.5C 450.167,855.5 452.833,855.5 455.5,855.5C 455.334,860.511 455.501,865.511 456,870.5C 462.68,872.993 465.18,870.659 463.5,863.5C 466.167,863.5 468.833,863.5 471.5,863.5C 469.749,870.107 472.082,872.607 478.5,871C 479.471,865.928 479.805,860.762 479.5,855.5C 484.833,855.5 490.167,855.5 495.5,855.5C 495.5,852.833 495.5,850.167 495.5,847.5C 492.833,847.5 490.167,847.5 487.5,847.5C 487.5,844.833 487.5,842.167 487.5,839.5C 492.833,839.5 498.167,839.5 503.5,839.5C 503.5,848.833 503.5,858.167 503.5,867.5C 499.5,867.5 495.5,867.5 491.5,867.5C 491.5,866.167 491.5,864.833 491.5,863.5C 490.167,863.5 488.833,863.5 487.5,863.5C 487.334,868.511 487.501,873.511 488,878.5C 494.68,880.993 497.18,878.659 495.5,871.5C 505.839,871.666 516.172,871.5 526.5,871C 527.471,865.928 527.805,860.762 527.5,855.5C 530.167,855.5 532.833,855.5 535.5,855.5C 533.82,862.659 536.32,864.993 543,862.5C 543.497,860.19 543.663,857.857 543.5,855.5C 546.119,855.768 548.619,855.435 551,854.5C 551.499,849.511 551.666,844.511 551.5,839.5C 556.511,839.666 561.511,839.499 566.5,839C 567.423,836.959 567.756,834.792 567.5,832.5C 564.684,832.456 562.351,831.456 560.5,829.5C 564.107,828.511 567.774,828.177 571.5,828.5C 571.5,829.5 571.5,830.5 571.5,831.5C 576.922,832.42 578.588,830.42 576.5,825.5C 578.57,825.449 580.403,826.115 582,827.5C 583.762,827.056 583.595,826.556 581.5,826C 583.714,824.727 586.047,823.727 588.5,823C 587.552,822.517 586.552,822.351 585.5,822.5C 618.3,814.678 649.3,802.345 678.5,785.5C 679.75,785.577 680.583,786.244 681,787.5C 683.027,787.014 685.193,787.014 687.5,787.5C 687.146,785.459 687.146,783.626 687.5,782C 691.105,778.554 695.105,775.721 699.5,773.5C 703.047,775.271 703.047,776.271 699.5,776.5C 699.5,777.5 699.5,778.5 699.5,779.5C 701.806,779.007 704.139,778.674 706.5,778.5C 706.5,777.167 706.5,775.833 706.5,774.5C 707.833,774.5 709.167,774.5 710.5,774.5C 710.5,776.167 710.5,777.833 710.5,779.5C 711.5,779.5 712.5,779.5 713.5,779.5C 713.5,780.833 713.5,782.167 713.5,783.5C 715.5,783.5 717.5,783.5 719.5,783.5C 719.5,780.833 719.5,778.167 719.5,775.5C 722.167,775.5 724.833,775.5 727.5,775.5C 727.5,772.833 727.5,770.167 727.5,767.5C 730.167,767.5 732.833,767.5 735.5,767.5C 735.5,764.833 735.5,762.167 735.5,759.5C 740.833,759.5 746.167,759.5 751.5,759.5C 751.5,764.833 751.5,770.167 751.5,775.5C 756.511,775.666 761.511,775.499 766.5,775C 767.435,772.619 767.768,770.119 767.5,767.5C 764.833,767.5 762.167,767.5 759.5,767.5C 759.5,764.833 759.5,762.167 759.5,759.5C 762.167,759.5 764.833,759.5 767.5,759.5C 767.5,756.833 767.5,754.167 767.5,751.5C 770.167,751.5 772.833,751.5 775.5,751.5C 777.167,744.5 774.5,741.833 767.5,743.5C 767.5,740.833 767.5,738.167 767.5,735.5C 774.5,737.167 777.167,734.5 775.5,727.5C 778.167,727.5 780.833,727.5 783.5,727.5C 783.5,724.833 783.5,722.167 783.5,719.5C 786.167,719.5 788.833,719.5 791.5,719.5C 791.5,706.167 791.5,692.833 791.5,679.5C 792.833,679.5 794.167,679.5 795.5,679.5C 795.223,676.552 795.556,673.719 796.5,671C 794.905,671.617 793.572,671.284 792.5,670C 794.361,666.599 796.695,663.599 799.5,661C 799.755,655.974 801.922,651.474 806,647.5C 807.559,649.217 808.392,651.217 808.5,653.5C 810.737,654.449 813.071,655.116 815.5,655.5C 815.5,651.5 815.5,647.5 815.5,643.5C 818.167,643.5 820.833,643.5 823.5,643.5C 823.5,647.5 823.5,651.5 823.5,655.5C 824.833,655.5 826.167,655.5 827.5,655.5C 827.5,654.167 827.5,652.833 827.5,651.5C 828.833,651.5 830.167,651.5 831.5,651.5C 831.5,658.167 831.5,664.833 831.5,671.5C 834.167,671.5 836.833,671.5 839.5,671.5C 839.5,674.167 839.5,676.833 839.5,679.5C 841.833,679.5 844.167,679.5 846.5,679.5C 846.128,682.022 846.961,684.022 849,685.5C 849.536,683.433 849.036,681.599 847.5,680C 849.449,678.165 851.783,676.999 854.5,676.5C 853.675,675.614 852.675,675.281 851.5,675.5C 851.67,674.178 851.337,673.011 850.5,672C 848.19,671.503 845.857,671.337 843.5,671.5C 843.5,668.833 843.5,666.167 843.5,663.5C 847.79,664.013 851.623,663.013 855,660.5C 855.667,653.833 855.667,647.167 855,640.5C 852.619,639.565 850.119,639.232 847.5,639.5C 847.5,634.167 847.5,628.833 847.5,623.5C 854.5,625.167 857.167,622.5 855.5,615.5C 858.119,615.768 860.619,615.435 863,614.5C 863.499,609.511 863.666,604.511 863.5,599.5C 866.119,599.768 868.619,599.435 871,598.5C 871.499,593.511 871.666,588.511 871.5,583.5C 873.833,583.5 876.167,583.5 878.5,583.5C 878.202,580.664 878.869,580.164 880.5,582C 880.112,583.657 879.779,585.657 879.5,588C 879.667,589.167 879.833,590.333 880,591.5C 880.333,591.167 880.667,590.833 881,590.5C 881.711,592.367 881.211,593.867 879.5,595C 880.894,595.956 881.561,597.289 881.5,599C 879.753,602.106 879.42,605.273 880.5,608.5 Z"/></g>
<g><path style="opacity:1" fill="#32495a" d="M 461.5,824.5 C 467.911,826.344 474.578,827.344 481.5,827.5C 484.641,828.321 487.975,828.821 491.5,829C 506.5,829.667 521.5,829.667 536.5,829C 552.905,827.252 569.238,825.085 585.5,822.5C 586.552,822.351 587.552,822.517 588.5,823C 586.047,823.727 583.714,824.727 581.5,826C 583.595,826.556 583.762,827.056 582,827.5C 580.403,826.115 578.57,825.449 576.5,825.5C 578.588,830.42 576.922,832.42 571.5,831.5C 571.5,830.5 571.5,829.5 571.5,828.5C 567.774,828.177 564.107,828.511 560.5,829.5C 562.351,831.456 564.684,832.456 567.5,832.5C 567.756,834.792 567.423,836.959 566.5,839C 561.511,839.499 556.511,839.666 551.5,839.5C 551.666,844.511 551.499,849.511 551,854.5C 548.619,855.435 546.119,855.768 543.5,855.5C 543.663,857.857 543.497,860.19 543,862.5C 536.32,864.993 533.82,862.659 535.5,855.5C 532.833,855.5 530.167,855.5 527.5,855.5C 527.805,860.762 527.471,865.928 526.5,871C 516.172,871.5 505.839,871.666 495.5,871.5C 497.18,878.659 494.68,880.993 488,878.5C 487.501,873.511 487.334,868.511 487.5,863.5C 488.833,863.5 490.167,863.5 491.5,863.5C 491.5,864.833 491.5,866.167 491.5,867.5C 495.5,867.5 499.5,867.5 503.5,867.5C 503.5,858.167 503.5,848.833 503.5,839.5C 498.167,839.5 492.833,839.5 487.5,839.5C 487.5,842.167 487.5,844.833 487.5,847.5C 490.167,847.5 492.833,847.5 495.5,847.5C 495.5,850.167 495.5,852.833 495.5,855.5C 490.167,855.5 484.833,855.5 479.5,855.5C 479.805,860.762 479.471,865.928 478.5,871C 472.082,872.607 469.749,870.107 471.5,863.5C 468.833,863.5 466.167,863.5 463.5,863.5C 465.18,870.659 462.68,872.993 456,870.5C 455.501,865.511 455.334,860.511 455.5,855.5C 452.833,855.5 450.167,855.5 447.5,855.5C 447.666,860.511 447.499,865.511 447,870.5C 444.619,871.435 442.119,871.768 439.5,871.5C 439.768,874.119 439.435,876.619 438.5,879C 435.454,878.686 432.454,878.853 429.5,879.5C 435.147,880.983 440.98,882.65 447,884.5C 447.519,883.484 448.353,882.818 449.5,882.5C 452.266,883.967 455.266,884.8 458.5,885C 456.122,885.974 456.456,886.641 459.5,887C 468.198,888.69 476.865,889.524 485.5,889.5C 487.104,889.061 488.604,888.394 490,887.5C 492.194,889.969 495.027,891.135 498.5,891C 511.673,891.169 524.673,891.669 537.5,892.5C 464.482,896.248 395.815,880.415 331.5,845C 303.566,829.201 277.566,810.701 253.5,789.5C 297.319,744.514 341.319,699.681 385.5,655C 397.655,649.991 406.488,653.491 412,665.5C 413.038,670.476 412.372,675.142 410,679.5C 381.987,708.679 353.487,737.346 324.5,765.5C 365.173,796.326 410.84,815.993 461.5,824.5 Z"/></g>
<g><path style="opacity:1" fill="#bec9cd" d="M 461.5,824.5 C 468.445,824.495 475.112,825.495 481.5,827.5C 474.578,827.344 467.911,826.344 461.5,824.5 Z"/></g>
<g><path style="opacity:1" fill="#b4bec3" d="M 643.5,871.5 C 641.485,872.924 639.152,873.59 636.5,873.5C 638.515,872.076 640.848,871.41 643.5,871.5 Z"/></g>
<g><path style="opacity:1" fill="#c7d3db" d="M 591.5,885.5 C 590.666,886.748 589.333,887.415 587.5,887.5C 583.524,888.164 579.524,888.497 575.5,888.5C 580.63,887.087 585.963,886.087 591.5,885.5 Z"/></g>
</svg>
